<?xml version="1.0" encoding="UTF-8" standalone="no"?>
<!DOCTYPE svg PUBLIC "-//W3C//DTD SVG 1.1//EN" "http://www.w3.org/Graphics/SVG/1.1/DTD/svg11.dtd">
<svg width="100%" height="100%" viewBox="0 0 800 280" version="1.1" xmlns="http://www.w3.org/2000/svg" xmlns:xlink="http://www.w3.org/1999/xlink" xml:space="preserve" xmlns:serif="http://www.serif.com/" style="fill-rule:evenodd;clip-rule:evenodd;stroke-linejoin:round;stroke-miterlimit:2;">
    <g transform="matrix(1,0,0,1,5.2912e-09,-160.336)">
        <g transform="matrix(23.8648,0,0,23.8648,-5579.58,-7030.86)">
            <g transform="matrix(12,0,0,12,234.015,309.195)">
                <path d="M0.247,-0.359C0.275,-0.375 0.304,-0.388 0.335,-0.398C0.365,-0.408 0.394,-0.412 0.421,-0.409C0.441,-0.407 0.458,-0.403 0.472,-0.396C0.485,-0.389 0.496,-0.381 0.505,-0.372C0.513,-0.362 0.519,-0.351 0.522,-0.34C0.525,-0.328 0.527,-0.316 0.527,-0.303C0.527,-0.282 0.523,-0.26 0.514,-0.239C0.502,-0.208 0.486,-0.178 0.465,-0.149C0.444,-0.12 0.419,-0.093 0.391,-0.071C0.363,-0.048 0.332,-0.029 0.299,-0.015C0.265,-0.001 0.23,0.006 0.193,0.007C0.164,0.007 0.14,0.004 0.123,-0.004C0.105,-0.011 0.091,-0.02 0.082,-0.031C0.081,-0.026 0.08,-0.022 0.08,-0.018C0.079,-0.013 0.079,-0.009 0.078,-0.004C0.077,0.001 0.072,0.003 0.062,0.002C0.052,0.001 0.041,-0.002 0.03,-0.007C0.019,-0.011 0.008,-0.016 -0.002,-0.022C-0.012,-0.027 -0.017,-0.033 -0.018,-0.038C-0.016,-0.067 -0.01,-0.097 -0.001,-0.127C0.008,-0.156 0.02,-0.186 0.035,-0.216C0.049,-0.245 0.065,-0.275 0.083,-0.305C0.101,-0.335 0.119,-0.365 0.137,-0.394L0.166,-0.441C0.188,-0.478 0.209,-0.515 0.229,-0.552C0.248,-0.589 0.263,-0.623 0.273,-0.653C0.281,-0.656 0.292,-0.656 0.306,-0.653C0.319,-0.649 0.332,-0.643 0.345,-0.635C0.357,-0.627 0.367,-0.618 0.375,-0.608C0.382,-0.597 0.384,-0.587 0.381,-0.577C0.377,-0.569 0.371,-0.558 0.363,-0.545C0.355,-0.531 0.346,-0.516 0.336,-0.499C0.326,-0.482 0.315,-0.465 0.304,-0.447C0.293,-0.429 0.282,-0.412 0.272,-0.396L0.247,-0.359ZM0.177,-0.251C0.166,-0.232 0.155,-0.214 0.145,-0.195C0.135,-0.176 0.126,-0.157 0.117,-0.138L0.117,-0.126C0.117,-0.113 0.121,-0.1 0.128,-0.09C0.135,-0.079 0.149,-0.072 0.168,-0.071C0.183,-0.07 0.2,-0.074 0.219,-0.082C0.237,-0.09 0.255,-0.101 0.274,-0.115C0.292,-0.128 0.31,-0.144 0.327,-0.162C0.343,-0.179 0.359,-0.197 0.372,-0.216C0.385,-0.234 0.396,-0.252 0.404,-0.269C0.412,-0.286 0.416,-0.302 0.416,-0.315C0.416,-0.334 0.405,-0.344 0.383,-0.345C0.368,-0.346 0.351,-0.344 0.333,-0.339C0.314,-0.334 0.296,-0.328 0.277,-0.319C0.258,-0.31 0.24,-0.3 0.223,-0.289C0.206,-0.277 0.19,-0.264 0.177,-0.251Z" style="fill:white;fill-rule:nonzero;"/>
            </g>
            <g transform="matrix(12,0,0,12,240.147,309.195)">
                <path d="M0.247,-0.359C0.275,-0.375 0.304,-0.388 0.335,-0.398C0.365,-0.408 0.394,-0.412 0.421,-0.409C0.441,-0.407 0.458,-0.403 0.472,-0.396C0.485,-0.389 0.496,-0.381 0.505,-0.372C0.513,-0.362 0.519,-0.351 0.522,-0.34C0.525,-0.328 0.527,-0.316 0.527,-0.303C0.527,-0.282 0.523,-0.26 0.514,-0.239C0.502,-0.208 0.486,-0.178 0.465,-0.149C0.444,-0.12 0.419,-0.093 0.391,-0.071C0.363,-0.048 0.332,-0.029 0.299,-0.015C0.265,-0.001 0.23,0.006 0.193,0.007C0.164,0.007 0.14,0.004 0.123,-0.004C0.105,-0.011 0.091,-0.02 0.082,-0.031C0.081,-0.026 0.08,-0.022 0.08,-0.018C0.079,-0.013 0.079,-0.009 0.078,-0.004C0.077,0.001 0.072,0.003 0.062,0.002C0.052,0.001 0.041,-0.002 0.03,-0.007C0.019,-0.011 0.008,-0.016 -0.002,-0.022C-0.012,-0.027 -0.017,-0.033 -0.018,-0.038C-0.016,-0.067 -0.01,-0.097 -0.001,-0.127C0.008,-0.156 0.02,-0.186 0.035,-0.216C0.049,-0.245 0.065,-0.275 0.083,-0.305C0.101,-0.335 0.119,-0.365 0.137,-0.394L0.166,-0.441C0.188,-0.478 0.209,-0.515 0.229,-0.552C0.248,-0.589 0.263,-0.623 0.273,-0.653C0.281,-0.656 0.292,-0.656 0.306,-0.653C0.319,-0.649 0.332,-0.643 0.345,-0.635C0.357,-0.627 0.367,-0.618 0.375,-0.608C0.382,-0.597 0.384,-0.587 0.381,-0.577C0.377,-0.569 0.371,-0.558 0.363,-0.545C0.355,-0.531 0.346,-0.516 0.336,-0.499C0.326,-0.482 0.315,-0.465 0.304,-0.447C0.293,-0.429 0.282,-0.412 0.272,-0.396L0.247,-0.359ZM0.177,-0.251C0.166,-0.232 0.155,-0.214 0.145,-0.195C0.135,-0.176 0.126,-0.157 0.117,-0.138L0.117,-0.126C0.117,-0.113 0.121,-0.1 0.128,-0.09C0.135,-0.079 0.149,-0.072 0.168,-0.071C0.183,-0.07 0.2,-0.074 0.219,-0.082C0.237,-0.09 0.255,-0.101 0.274,-0.115C0.292,-0.128 0.31,-0.144 0.327,-0.162C0.343,-0.179 0.359,-0.197 0.372,-0.216C0.385,-0.234 0.396,-0.252 0.404,-0.269C0.412,-0.286 0.416,-0.302 0.416,-0.315C0.416,-0.334 0.405,-0.344 0.383,-0.345C0.368,-0.346 0.351,-0.344 0.333,-0.339C0.314,-0.334 0.296,-0.328 0.277,-0.319C0.258,-0.31 0.24,-0.3 0.223,-0.289C0.206,-0.277 0.19,-0.264 0.177,-0.251Z" style="fill:white;fill-rule:nonzero;"/>
            </g>
            <g transform="matrix(12,0,0,12,246.279,309.195)">
                <path d="M0.124,-0.41C0.132,-0.413 0.143,-0.412 0.156,-0.408C0.169,-0.404 0.182,-0.398 0.194,-0.39C0.205,-0.382 0.215,-0.373 0.222,-0.362C0.229,-0.351 0.23,-0.341 0.226,-0.331C0.221,-0.32 0.212,-0.303 0.199,-0.282C0.19,-0.266 0.18,-0.248 0.169,-0.228C0.158,-0.208 0.147,-0.188 0.138,-0.169C0.128,-0.149 0.12,-0.131 0.113,-0.114C0.106,-0.096 0.103,-0.083 0.103,-0.072C0.103,-0.064 0.105,-0.06 0.109,-0.06L0.12,-0.06C0.139,-0.065 0.156,-0.073 0.173,-0.084C0.19,-0.095 0.205,-0.108 0.22,-0.122C0.234,-0.136 0.247,-0.151 0.261,-0.167C0.274,-0.183 0.286,-0.199 0.297,-0.214L0.296,-0.214C0.298,-0.217 0.3,-0.221 0.303,-0.224C0.306,-0.227 0.308,-0.23 0.311,-0.233C0.336,-0.286 0.361,-0.345 0.384,-0.408C0.392,-0.411 0.403,-0.411 0.417,-0.407C0.431,-0.403 0.444,-0.397 0.457,-0.389C0.469,-0.381 0.479,-0.372 0.486,-0.361C0.493,-0.35 0.495,-0.34 0.491,-0.33L0.343,-0.044C0.328,-0.016 0.314,0.011 0.3,0.036C0.286,0.061 0.271,0.084 0.256,0.107C0.28,0.118 0.303,0.129 0.326,0.141C0.348,0.152 0.37,0.164 0.393,0.177L0.392,0.177L0.407,0.186C0.417,0.191 0.419,0.198 0.412,0.205C0.405,0.212 0.396,0.218 0.383,0.224C0.37,0.229 0.356,0.234 0.342,0.237C0.327,0.24 0.317,0.24 0.311,0.237L0.27,0.214C0.259,0.207 0.248,0.2 0.237,0.194C0.226,0.188 0.215,0.182 0.204,0.177C0.185,0.2 0.164,0.22 0.142,0.238C0.119,0.255 0.095,0.27 0.069,0.283C0.042,0.295 0.014,0.304 -0.018,0.311C-0.049,0.317 -0.083,0.32 -0.121,0.32C-0.144,0.32 -0.166,0.318 -0.188,0.314C-0.21,0.31 -0.23,0.304 -0.248,0.296C-0.265,0.288 -0.28,0.277 -0.291,0.264C-0.302,0.251 -0.307,0.234 -0.307,0.215C-0.307,0.19 -0.3,0.167 -0.285,0.146C-0.27,0.125 -0.25,0.106 -0.225,0.091C-0.2,0.076 -0.171,0.064 -0.138,0.055C-0.105,0.046 -0.07,0.042 -0.034,0.042C-0.013,0.042 0.005,0.043 0.022,0.044C0.039,0.045 0.054,0.046 0.069,0.048C0.083,0.05 0.097,0.053 0.11,0.056C0.123,0.059 0.137,0.063 0.151,0.068C0.164,0.047 0.178,0.026 0.191,0.005C0.204,-0.016 0.216,-0.038 0.227,-0.061C0.212,-0.048 0.198,-0.036 0.183,-0.026C0.178,-0.023 0.171,-0.019 0.164,-0.015C0.156,-0.01 0.147,-0.006 0.138,-0.002C0.128,0.002 0.117,0.005 0.106,0.008C0.094,0.01 0.082,0.011 0.069,0.011C0.043,0.01 0.023,0.002 0.011,-0.014C-0.003,-0.029 -0.009,-0.048 -0.009,-0.071C-0.009,-0.084 -0.008,-0.095 -0.005,-0.106L-0.005,-0.105C-0,-0.126 0.009,-0.151 0.022,-0.182C0.035,-0.213 0.049,-0.244 0.064,-0.276C0.075,-0.299 0.085,-0.321 0.094,-0.343C0.103,-0.364 0.111,-0.385 0.117,-0.404L0.124,-0.41ZM-0.137,0.274C-0.09,0.274 -0.047,0.261 -0.008,0.235C0.032,0.208 0.069,0.174 0.103,0.133C0.083,0.127 0.062,0.122 0.041,0.119C0.019,0.116 -0.006,0.114 -0.033,0.114C-0.056,0.114 -0.081,0.116 -0.107,0.12C-0.132,0.124 -0.156,0.13 -0.178,0.138C-0.199,0.146 -0.217,0.156 -0.231,0.169C-0.244,0.181 -0.251,0.196 -0.25,0.213C-0.25,0.225 -0.246,0.235 -0.239,0.243C-0.232,0.251 -0.223,0.257 -0.212,0.262C-0.201,0.267 -0.188,0.27 -0.175,0.272C-0.162,0.273 -0.149,0.274 -0.137,0.274Z" style="fill:white;fill-rule:nonzero;"/>
            </g>
            <g transform="matrix(12,0,0,12,251.607,309.195)">
                <path d="M0.39,-0.41C0.398,-0.413 0.409,-0.412 0.422,-0.408C0.435,-0.404 0.448,-0.398 0.46,-0.39C0.472,-0.382 0.482,-0.373 0.489,-0.362C0.496,-0.351 0.497,-0.341 0.493,-0.331C0.491,-0.327 0.488,-0.321 0.484,-0.313C0.479,-0.305 0.474,-0.296 0.468,-0.286C0.459,-0.27 0.448,-0.252 0.437,-0.232C0.426,-0.211 0.415,-0.191 0.405,-0.171C0.395,-0.151 0.387,-0.132 0.38,-0.115C0.373,-0.097 0.369,-0.083 0.369,-0.072C0.369,-0.064 0.371,-0.06 0.375,-0.06L0.387,-0.06C0.406,-0.065 0.424,-0.073 0.441,-0.085C0.458,-0.096 0.474,-0.109 0.489,-0.124C0.503,-0.139 0.518,-0.154 0.531,-0.171C0.544,-0.187 0.556,-0.203 0.567,-0.218L0.582,-0.239C0.586,-0.244 0.591,-0.246 0.598,-0.247C0.604,-0.247 0.61,-0.245 0.615,-0.243C0.62,-0.24 0.624,-0.235 0.627,-0.23C0.629,-0.224 0.628,-0.218 0.623,-0.211L0.602,-0.185L0.602,-0.186C0.58,-0.157 0.557,-0.128 0.533,-0.1C0.509,-0.072 0.481,-0.047 0.45,-0.026C0.445,-0.023 0.438,-0.019 0.431,-0.015C0.423,-0.01 0.414,-0.006 0.405,-0.002C0.395,0.002 0.384,0.005 0.373,0.008C0.361,0.01 0.349,0.011 0.336,0.011C0.309,0.01 0.29,0.002 0.277,-0.014C0.264,-0.029 0.257,-0.049 0.257,-0.072L0.257,-0.082C0.257,-0.085 0.257,-0.088 0.258,-0.091C0.247,-0.079 0.235,-0.067 0.222,-0.057C0.209,-0.046 0.196,-0.035 0.183,-0.026C0.178,-0.023 0.171,-0.019 0.164,-0.015C0.156,-0.01 0.147,-0.006 0.138,-0.002C0.128,0.002 0.117,0.005 0.106,0.008C0.094,0.01 0.082,0.011 0.069,0.011C0.043,0.01 0.023,0.002 0.011,-0.014C-0.003,-0.029 -0.009,-0.048 -0.009,-0.071C-0.009,-0.084 -0.008,-0.095 -0.005,-0.106L-0.005,-0.105C-0,-0.126 0.009,-0.151 0.022,-0.182C0.035,-0.213 0.049,-0.244 0.064,-0.276C0.075,-0.299 0.085,-0.321 0.094,-0.343C0.103,-0.364 0.111,-0.385 0.117,-0.404L0.124,-0.41C0.132,-0.413 0.143,-0.412 0.156,-0.408C0.169,-0.404 0.182,-0.398 0.194,-0.39C0.205,-0.382 0.215,-0.373 0.222,-0.362C0.229,-0.351 0.23,-0.341 0.226,-0.331C0.221,-0.32 0.212,-0.303 0.199,-0.282C0.19,-0.266 0.18,-0.248 0.169,-0.228C0.158,-0.208 0.147,-0.188 0.138,-0.169C0.128,-0.149 0.12,-0.131 0.113,-0.114C0.106,-0.096 0.103,-0.083 0.103,-0.072C0.103,-0.064 0.105,-0.06 0.109,-0.06L0.12,-0.06C0.139,-0.065 0.156,-0.073 0.173,-0.084C0.19,-0.095 0.205,-0.108 0.22,-0.122C0.234,-0.136 0.247,-0.151 0.261,-0.167C0.274,-0.183 0.286,-0.199 0.297,-0.214L0.296,-0.214L0.308,-0.23L0.328,-0.272C0.339,-0.295 0.35,-0.318 0.36,-0.341C0.369,-0.364 0.377,-0.385 0.383,-0.404L0.39,-0.41Z" style="fill:white;fill-rule:nonzero;"/>
            </g>
            <g transform="matrix(12,0,0,12,258.051,309.195)">
                <path d="M0.415,-0.131C0.401,-0.115 0.385,-0.098 0.366,-0.082C0.347,-0.065 0.327,-0.049 0.306,-0.035C0.285,-0.021 0.262,-0.01 0.237,-0.002C0.212,0.007 0.187,0.011 0.161,0.01C0.132,0.009 0.11,0 0.096,-0.016C0.082,-0.032 0.075,-0.05 0.076,-0.07C0.077,-0.085 0.08,-0.099 0.086,-0.113C0.092,-0.127 0.099,-0.14 0.108,-0.153C0.116,-0.166 0.125,-0.178 0.136,-0.19C0.147,-0.202 0.157,-0.214 0.168,-0.226C0.171,-0.229 0.174,-0.232 0.177,-0.236C0.18,-0.24 0.184,-0.243 0.187,-0.246L0.21,-0.271C0.218,-0.28 0.226,-0.288 0.235,-0.295C0.243,-0.302 0.253,-0.306 0.264,-0.308C0.256,-0.307 0.249,-0.306 0.242,-0.305C0.235,-0.304 0.229,-0.302 0.223,-0.301C0.216,-0.3 0.208,-0.298 0.201,-0.297C0.193,-0.296 0.182,-0.295 0.169,-0.296L0.156,-0.296C0.141,-0.279 0.126,-0.262 0.113,-0.246C0.1,-0.229 0.087,-0.214 0.076,-0.201C0.073,-0.198 0.069,-0.198 0.064,-0.199C0.058,-0.2 0.052,-0.201 0.047,-0.204C0.042,-0.207 0.038,-0.21 0.035,-0.214C0.032,-0.217 0.032,-0.221 0.035,-0.225L0.035,-0.224L0.069,-0.269L0.104,-0.314C0.098,-0.32 0.095,-0.329 0.095,-0.34C0.095,-0.355 0.101,-0.371 0.113,-0.388C0.124,-0.405 0.136,-0.422 0.147,-0.437C0.152,-0.444 0.157,-0.451 0.162,-0.458C0.167,-0.465 0.171,-0.473 0.175,-0.482C0.184,-0.479 0.193,-0.475 0.202,-0.472C0.211,-0.468 0.219,-0.464 0.226,-0.459C0.233,-0.454 0.238,-0.448 0.243,-0.442C0.247,-0.435 0.249,-0.428 0.249,-0.419C0.249,-0.412 0.246,-0.402 0.24,-0.389L0.204,-0.347L0.205,-0.347L0.198,-0.341L0.197,-0.339C0.194,-0.336 0.196,-0.336 0.203,-0.338C0.21,-0.339 0.219,-0.342 0.231,-0.347C0.243,-0.351 0.257,-0.356 0.272,-0.363C0.287,-0.37 0.302,-0.376 0.316,-0.383C0.33,-0.389 0.343,-0.395 0.354,-0.401C0.365,-0.406 0.372,-0.411 0.375,-0.414C0.378,-0.414 0.383,-0.413 0.389,-0.411C0.394,-0.408 0.4,-0.405 0.406,-0.402C0.411,-0.399 0.416,-0.396 0.421,-0.393C0.426,-0.39 0.428,-0.388 0.429,-0.387C0.435,-0.38 0.436,-0.371 0.434,-0.36C0.431,-0.349 0.424,-0.338 0.415,-0.325C0.406,-0.312 0.394,-0.298 0.38,-0.283C0.366,-0.268 0.351,-0.253 0.336,-0.238L0.284,-0.184C0.277,-0.177 0.27,-0.17 0.262,-0.161C0.254,-0.152 0.246,-0.143 0.239,-0.134C0.232,-0.124 0.226,-0.115 0.221,-0.106C0.216,-0.096 0.213,-0.089 0.213,-0.082C0.213,-0.075 0.219,-0.072 0.232,-0.071C0.24,-0.071 0.25,-0.073 0.261,-0.078C0.272,-0.082 0.285,-0.088 0.298,-0.096C0.311,-0.104 0.324,-0.113 0.337,-0.124C0.349,-0.135 0.361,-0.146 0.372,-0.158C0.384,-0.172 0.396,-0.187 0.409,-0.204C0.421,-0.22 0.431,-0.233 0.438,-0.242C0.441,-0.245 0.445,-0.245 0.451,-0.245C0.456,-0.243 0.462,-0.242 0.467,-0.239C0.472,-0.236 0.476,-0.232 0.479,-0.228C0.482,-0.223 0.482,-0.219 0.479,-0.215L0.479,-0.216L0.452,-0.18C0.445,-0.171 0.438,-0.162 0.432,-0.153C0.426,-0.144 0.42,-0.137 0.415,-0.131Z" style="fill:white;fill-rule:nonzero;"/>
            </g>
            <g transform="matrix(12,0,0,12,262.731,309.195)">
                <path d="M0.266,-0.386C0.26,-0.377 0.252,-0.364 0.242,-0.348C0.231,-0.332 0.22,-0.314 0.208,-0.294C0.196,-0.274 0.184,-0.253 0.172,-0.232C0.159,-0.21 0.148,-0.189 0.138,-0.169C0.128,-0.148 0.12,-0.13 0.114,-0.113C0.107,-0.096 0.104,-0.082 0.104,-0.072C0.104,-0.067 0.106,-0.063 0.11,-0.06L0.12,-0.06C0.139,-0.065 0.156,-0.073 0.173,-0.084C0.19,-0.095 0.205,-0.108 0.22,-0.122C0.234,-0.136 0.247,-0.151 0.261,-0.167C0.274,-0.183 0.286,-0.199 0.297,-0.214L0.296,-0.214C0.299,-0.219 0.303,-0.223 0.306,-0.227C0.309,-0.231 0.313,-0.235 0.316,-0.239C0.318,-0.242 0.322,-0.243 0.328,-0.242C0.333,-0.241 0.339,-0.24 0.344,-0.237C0.349,-0.234 0.354,-0.231 0.357,-0.227C0.36,-0.223 0.361,-0.219 0.359,-0.216L0.334,-0.183C0.313,-0.155 0.29,-0.127 0.265,-0.099C0.24,-0.071 0.213,-0.047 0.183,-0.026C0.178,-0.023 0.171,-0.019 0.164,-0.015C0.156,-0.01 0.147,-0.006 0.138,-0.002C0.128,0.002 0.117,0.005 0.106,0.008C0.094,0.01 0.082,0.011 0.069,0.011C0.042,0.01 0.022,0.002 0.01,-0.014C-0.003,-0.029 -0.009,-0.049 -0.009,-0.072C-0.009,-0.077 -0.009,-0.083 -0.008,-0.089C-0.007,-0.094 -0.006,-0.1 -0.005,-0.105C0.004,-0.152 0.022,-0.199 0.047,-0.244C0.072,-0.289 0.098,-0.334 0.127,-0.379L0.166,-0.442L0.166,-0.441C0.188,-0.478 0.209,-0.515 0.229,-0.552C0.248,-0.589 0.263,-0.623 0.273,-0.653C0.281,-0.656 0.292,-0.656 0.306,-0.653C0.319,-0.649 0.332,-0.643 0.345,-0.635C0.357,-0.627 0.367,-0.618 0.375,-0.608C0.382,-0.597 0.384,-0.587 0.381,-0.577C0.377,-0.569 0.371,-0.558 0.363,-0.545C0.355,-0.531 0.346,-0.516 0.336,-0.499C0.326,-0.482 0.315,-0.465 0.304,-0.447C0.293,-0.429 0.282,-0.412 0.272,-0.396L0.272,-0.397L0.266,-0.386Z" style="fill:white;fill-rule:nonzero;"/>
            </g>
        </g>
    </g>
</svg>
